# Blender v2.79 (sub 0) OBJ File: 'Trees - Snow.blend'
# www.blender.org
mtllib Snowy Tree 5.mtl
o Tree_5_Plane.011
v -0.989466 -0.568860 -24.782282
v 0.989466 -0.568860 -24.782282
v -0.989466 -0.568860 -26.761213
v 0.989466 -0.568860 -26.761213
v -0.012843 6.137344 -25.784590
v -0.012843 6.137344 -25.758905
v 0.012843 6.137344 -25.758905
v 0.012843 6.137344 -25.784590
v 0.222136 -0.953429 -25.899948
v 0.269665 -1.331465 -26.036255
v 0.210020 -0.873759 -25.502111
v 0.267084 -1.319461 -25.483688
v -0.210020 -0.895381 -25.922926
v -0.282956 -1.322385 -26.039034
v -0.222136 -0.815711 -25.525089
v -0.285537 -1.310380 -25.486467
v 0.245767 -0.386061 -25.590504
v 0.249849 -0.405784 -26.027575
v -0.222781 -0.371211 -25.595211
v -0.218699 -0.390935 -26.032282
v 0.939263 -0.247876 -24.854376
v -0.947922 -0.216648 -26.728392
v 0.933288 -0.219633 -26.734594
v -0.941947 -0.244891 -24.848173
v -0.046798 6.146322 -25.820179
v -0.046522 6.151059 -25.724588
v 0.049113 6.148092 -25.726210
v 0.047212 6.143442 -25.820391
v 0.182009 4.814631 -25.917215
v -0.296314 4.787221 -25.425247
v 0.968980 -0.211062 -26.768545
v 0.798041 0.836917 -26.690977
v 0.715705 2.164225 -26.416372
v 0.436486 3.491957 -26.210623
v 0.187392 4.784587 -25.431841
v 0.450135 3.432125 -25.336716
v 0.734077 2.076548 -25.154205
v 0.824052 0.724515 -25.036631
v -0.975219 -0.232973 -24.812805
v -0.834209 0.738342 -25.011797
v -0.531813 2.086597 -25.132906
v -0.426416 3.434352 -25.323107
v -0.305413 4.817468 -25.908680
v -0.439007 3.494398 -26.197294
v -0.551695 2.174151 -26.398113
v -0.858278 0.850872 -26.663948
v 0.972819 -0.235144 -24.819563
v -0.983605 -0.209030 -26.762577
vt 0.092763 0.943456
vt 0.166679 0.742996
vt 0.166679 0.943456
vt 0.707958 0.745589
vt 0.707958 0.742987
vt 0.708917 0.742987
vt 0.708917 0.745589
vt 0.092763 0.742996
vt 0.708917 0.745589
vt 0.707958 0.745589
vt 0.915136 0.092459
vt 0.985359 0.089712
vt 0.985359 0.089712
vt 0.915136 0.092459
vt 0.707958 0.742987
vt 0.708917 0.742987
vt 0.912135 0.709532
vt 0.841872 0.709733
vt 0.841872 0.709733
vt 0.912135 0.709532
vt 0.763403 0.710119
vt 0.693175 0.707200
vt 0.693175 0.707200
vt 0.763403 0.710119
vt 0.837918 0.707579
vt 0.767654 0.707195
vt 0.767654 0.707195
vt 0.837918 0.707579
vt 0.628504 0.315034
vt 0.655408 0.500943
vt 0.552908 0.500943
vt 0.554396 0.279805
vt 0.438561 0.286982
vt 0.450418 0.506217
vt 0.347926 0.506217
vt 0.358192 0.260812
vt 0.547590 0.258481
vt 0.552908 0.504735
vt 0.450418 0.504735
vt 0.473454 0.293126
vt 0.642617 0.747598
vt 0.655384 0.961223
vt 0.552908 0.961223
vt 0.562203 0.772320
vt 0.455364 0.043747
vt 0.536484 0.038777
vt 0.450431 0.779214
vt 0.347926 0.779214
vt 0.450431 0.737775
vt 0.450431 0.506217
vt 0.531578 0.506373
vt 0.531578 0.737931
vt 0.559521 0.504424
vt 0.646443 0.500943
vt 0.356596 0.038777
vt 0.443524 0.042418
vt 0.568955 0.038777
vt 0.650077 0.043859
vt 0.092763 0.743027
vt 0.018848 0.743027
vt 0.019842 0.707200
vt 0.090070 0.710119
vt 0.240584 0.056544
vt 0.314485 0.056544
vt 0.312025 0.089712
vt 0.241803 0.092459
vt 0.166674 0.742996
vt 0.092763 0.742996
vt 0.094321 0.707195
vt 0.164584 0.707579
vt 0.240584 0.742987
vt 0.168539 0.709733
vt 0.238802 0.709532
vt 0.740500 0.195192
vt 0.724991 0.192132
vt 0.728661 0.056544
vt 0.729620 0.056544
vt 0.946936 0.605986
vt 0.962450 0.603106
vt 0.951361 0.743026
vt 0.950402 0.743026
vt 0.808497 0.191698
vt 0.792948 0.191295
vt 0.802545 0.056544
vt 0.803504 0.056544
vt 0.886844 0.197286
vt 0.871294 0.197497
vt 0.876518 0.056544
vt 0.877477 0.056544
vt 0.847467 0.609971
vt 0.906790 0.609166
vt 0.850882 0.472711
vt 0.895615 0.472103
vt 0.861470 0.334427
vt 0.891611 0.334018
vt 0.772327 0.599791
vt 0.831649 0.601328
vt 0.783728 0.463426
vt 0.828459 0.464584
vt 0.787953 0.327948
vt 0.818094 0.328728
vt 0.977980 0.189216
vt 0.918795 0.200203
vt 0.973438 0.328918
vt 0.928810 0.337203
vt 0.966326 0.465858
vt 0.936255 0.471440
vt 0.696156 0.599718
vt 0.755324 0.611392
vt 0.706332 0.465650
vt 0.750947 0.474453
vt 0.714050 0.328732
vt 0.744112 0.334664
vn 0.0000 -1.0000 0.0000
vn 0.0000 1.0000 0.0000
vn 0.3185 0.9472 -0.0377
vn -0.2728 -0.9620 -0.0121
vn -0.2332 0.9718 -0.0340
vn -0.0001 -0.9435 0.3314
vn 0.2942 -0.9557 -0.0138
vn 0.0184 0.9390 -0.3434
vn -0.0020 -0.9729 -0.2312
vn 0.0239 0.9781 0.2067
vn -0.9921 -0.1255 -0.0032
vn 0.0220 -0.0607 -0.9979
vn 0.9884 -0.1487 0.0296
vn -0.0452 -0.2976 0.9536
vn 0.9998 0.0132 0.0178
vn 0.0165 0.9996 -0.0216
vn -0.0321 -0.9985 0.0448
vn -0.0122 0.2199 0.9754
vn 0.0167 -0.1682 -0.9856
vn -0.9981 0.0558 -0.0260
vn 0.9876 0.1567 -0.0004
vn -0.9914 0.1307 0.0025
vn -0.0015 0.0844 -0.9964
vn 0.0017 0.2092 0.9779
vn 0.9949 0.1003 -0.0081
vn -0.9820 0.1873 0.0242
vn -0.0143 0.0702 -0.9974
vn 0.0159 0.2121 0.9771
vn 0.0095 0.2107 0.9775
vn 0.0164 0.0868 0.9961
vn 0.0169 0.1377 0.9903
vn 0.0151 0.0735 0.9972
vn -0.0087 0.0831 -0.9965
vn -0.0135 0.2009 -0.9795
vn -0.0137 0.1509 -0.9885
vn -0.0148 0.2142 -0.9767
vn -0.9913 0.1307 0.0139
vn -0.9749 0.2206 0.0298
vn -0.9965 0.0814 0.0207
vn -0.9951 0.0965 0.0223
vn 0.9876 0.1571 -0.0022
vn 0.9978 0.0648 -0.0107
vn 0.9787 0.2054 -0.0005
vn 0.9818 0.1899 -0.0012
usemtl Colors
s off
f 3/1/1 2/2/1 1/3/1
f 6/4/2 7/5/2 8/6/2 5/7/2
f 3/1/1 4/8/1 2/2/1
f 6/4/3 5/7/3 25/9/3 26/10/3
f 22/11/4 24/12/4 39/13/4 48/14/4
f 8/6/5 7/5/5 27/15/5 28/16/5
f 24/17/6 21/18/6 47/19/6 39/20/6
f 21/21/7 23/22/7 31/23/7 47/24/7
f 7/5/8 6/4/8 26/10/8 27/15/8
f 23/25/9 22/26/9 48/27/9 31/28/9
f 5/7/10 8/6/10 28/16/10 25/9/10
f 9/29/11 10/30/11 12/31/11 11/32/11
f 11/33/12 12/34/12 16/35/12 15/36/12
f 15/37/13 16/38/13 14/39/13 13/40/13
f 13/41/14 14/42/14 10/43/14 9/44/14
f 15/37/15 13/40/15 20/45/15 19/46/15
f 16/35/16 12/34/16 10/47/16 14/48/16
f 17/49/17 19/50/17 20/51/17 18/52/17
f 13/41/18 9/44/18 18/53/18 20/54/18
f 11/33/19 15/36/19 19/55/19 17/56/19
f 9/29/20 11/32/20 17/57/20 18/58/20
f 2/59/21 4/60/21 23/61/21 21/62/21
f 3/63/22 1/64/22 24/65/22 22/66/22
f 4/67/23 3/68/23 22/69/23 23/70/23
f 1/71/24 2/2/24 21/72/24 24/73/24
f 35/74/25 29/75/25 28/76/25 27/77/25
f 43/78/26 30/79/26 26/80/26 25/81/26
f 29/82/27 43/83/27 25/84/27 28/85/27
f 30/86/28 35/87/28 27/88/28 26/89/28
f 39/20/29 47/19/29 38/90/29 40/91/29
f 40/91/30 38/90/30 37/92/30 41/93/30
f 41/93/31 37/92/31 36/94/31 42/95/31
f 42/95/32 36/94/32 35/87/32 30/86/32
f 31/28/33 48/27/33 46/96/33 32/97/33
f 32/97/34 46/96/34 45/98/34 33/99/34
f 33/99/35 45/98/35 44/100/35 34/101/35
f 34/101/36 44/100/36 43/83/36 29/82/36
f 48/14/37 39/13/37 40/102/37 46/103/37
f 46/103/38 40/102/38 41/104/38 45/105/38
f 45/105/39 41/104/39 42/106/39 44/107/39
f 44/107/40 42/106/40 30/79/40 43/78/40
f 47/24/41 31/23/41 32/108/41 38/109/41
f 38/109/42 32/108/42 33/110/42 37/111/42
f 37/111/43 33/110/43 34/112/43 36/113/43
f 36/113/44 34/112/44 29/75/44 35/74/44
