# Blender v2.79 (sub 0) OBJ File: 'Trees - Snow.blend'
# www.blender.org
mtllib Snowy Tree 3.mtl
o Tree_3_Cube.002
v -0.218615 -0.631431 -17.369793
v -0.263727 -0.046729 -17.344500
v -0.241081 -0.465628 -17.803205
v -0.263727 -0.046729 -17.871954
v 0.241081 -0.682738 -17.413248
v 0.263727 -0.046729 -17.344500
v 0.218615 -0.516935 -17.846661
v 0.263727 -0.046729 -17.871954
v -0.263727 -1.331465 -17.871954
v -0.263727 -1.331465 -17.344500
v 0.263727 -1.331465 -17.871954
v 0.263727 -1.331465 -17.344500
v 0.250037 -0.979546 -17.837696
v -0.230146 -1.011026 -17.852222
v -0.250037 -0.926102 -17.378757
v 0.230146 -0.894622 -17.364231
v -1.202312 -0.310456 -16.405914
v 1.202312 -0.310456 -16.405914
v -1.202312 -0.310456 -18.810539
v 1.202312 -0.310456 -18.810539
v -0.004663 4.976696 -17.612890
v -0.004663 4.976696 -17.603563
v 0.004663 4.976696 -17.603563
v 0.004663 4.976696 -17.612890
v 0.751166 1.011332 -18.359392
v 0.502331 2.333120 -18.110558
v 0.253497 3.654908 -17.861725
v 0.253497 3.654908 -17.354729
v 0.502332 2.333120 -17.105896
v 0.751166 1.011332 -16.857061
v -0.751166 1.011332 -16.857061
v -0.502331 2.333120 -17.105896
v -0.253497 3.654908 -17.354729
v -0.253497 3.654908 -17.861725
v -0.502332 2.333120 -18.110558
v -0.751166 1.011332 -18.359392
v 0.438728 3.537109 -18.046955
v -0.438728 3.537109 -17.169498
v 0.438728 3.537109 -17.169498
v -0.438728 3.537109 -18.046955
v 0.700407 2.215321 -18.308634
v 0.700408 2.215321 -16.907820
v -0.700407 2.215321 -16.907820
v -0.700408 2.215321 -18.308634
v 0.961168 0.905313 -18.569395
v 0.961168 0.905313 -16.647058
v -0.961168 0.905313 -16.647058
v -0.961168 0.905313 -18.569395
v 1.146604 -0.175305 -16.464859
v -1.146604 -0.115160 -18.751595
v 1.145230 -0.113786 -18.752804
v -1.145230 -0.176679 -16.463650
v 0.901211 1.124596 -16.708029
v -0.901211 1.069486 -18.508425
v 0.902300 1.068398 -18.507151
v -0.902300 1.125684 -16.709303
v 0.640065 2.384401 -16.972311
v -0.640065 2.435587 -18.244143
v 0.638835 2.436817 -18.245115
v -0.638835 2.383172 -16.971338
v 0.380484 3.751854 -17.231075
v -0.380484 3.711710 -17.985378
v 0.381166 3.711029 -17.984344
v -0.381166 3.752536 -17.232109
v -0.036605 4.994983 -17.650671
v -0.040459 4.999255 -17.572071
v 0.040112 4.999219 -17.571655
v 0.037260 4.994880 -17.650158
v 0.242119 4.253051 -17.831724
v -0.244496 4.420355 -17.387989
v 1.007894 0.499325 -18.612745
v 0.784696 1.036208 -18.391626
v 0.759492 1.579507 -18.354509
v 0.535796 2.353658 -18.145777
v 0.488848 3.122905 -18.087864
v 0.287937 3.677408 -17.894735
v -1.007124 0.248104 -16.603180
v -0.784627 1.032208 -16.822039
v -0.760295 1.808896 -16.862921
v -0.536067 2.357430 -17.073446
v -0.487627 2.907998 -17.127157
v -0.287077 3.673780 -17.318697
v 0.784557 1.032285 -16.822018
v 0.536143 2.357350 -17.073463
v 0.287128 3.673859 -17.318787
v -0.784701 1.036134 -18.391678
v -0.535710 2.353743 -18.145809
v -0.288076 3.677341 -17.894634
v 1.012875 0.253583 -16.608263
v -1.013668 0.493826 -18.607620
v 1.179598 -0.091876 -18.786283
v -1.177684 -0.151552 -16.430521
v 0.935215 1.091212 -18.541475
v -0.937226 1.146204 -16.675522
v 0.755700 1.804535 -16.857573
v -0.754853 1.583862 -18.359880
v 0.673888 2.457815 -18.278469
v -0.671411 2.406053 -16.936735
v 0.492837 2.912916 -17.131336
v -0.494112 3.117976 -18.083614
v 0.413614 3.732708 -18.019829
v -0.416837 3.773169 -17.199186
v 0.241345 4.417622 -17.383375
v -0.238840 4.255816 -17.836357
v 1.178896 -0.150207 -16.431553
v -1.180899 -0.093185 -18.785105
v 0.936164 1.145175 -16.674313
v -0.934192 1.092256 -18.542715
v 0.672584 2.407278 -16.937653
v -0.675180 2.456633 -18.277399
v 0.416057 3.772542 -17.198082
v -0.412768 3.733389 -18.021011
vt 0.417660 0.397293
vt 0.421294 0.688977
vt 0.345904 0.688971
vt 0.355721 0.479966
vt 0.499697 0.256667
vt 0.496682 0.047741
vt 0.572052 0.047713
vt 0.565525 0.282355
vt 0.493108 0.454492
vt 0.496682 0.688956
vt 0.421294 0.688972
vt 0.431140 0.371637
vt 0.644376 0.372186
vt 0.647429 0.688843
vt 0.572052 0.688948
vt 0.578567 0.397420
vt 0.501417 0.529015
vt 0.569986 0.513242
vt 0.572052 0.688981
vt 0.496682 0.689009
vt 0.421294 0.688977
vt 0.421294 0.952255
vt 0.345904 0.952255
vt 0.345904 0.688977
vt 0.572072 0.952287
vt 0.496682 0.952287
vt 0.496682 0.689009
vt 0.572072 0.689009
vt 0.416392 0.250099
vt 0.348711 0.207777
vt 0.345904 0.047713
vt 0.421294 0.047718
vt 0.491798 0.223434
vt 0.424144 0.265936
vt 0.421294 0.047730
vt 0.496682 0.047713
vt 0.642683 0.265930
vt 0.574100 0.250470
vt 0.572052 0.047818
vt 0.647429 0.047713
vt 0.011435 0.320865
vt 0.011435 0.034306
vt 0.109462 0.034306
vt 0.109462 0.320865
vt 0.709239 0.549950
vt 0.709620 0.549950
vt 0.709620 0.551061
vt 0.709239 0.551061
vt 0.060466 0.802631
vt 0.060466 0.922357
vt 0.060466 0.922357
vt 0.060466 0.802631
vt 0.709620 0.551061
vt 0.709239 0.551061
vt 0.934091 0.348059
vt 0.985970 0.342151
vt 0.985970 0.342151
vt 0.934091 0.348059
vt 0.019996 0.345891
vt 0.081240 0.345891
vt 0.081240 0.345891
vt 0.019996 0.345891
vt 0.709620 0.549950
vt 0.986054 0.702123
vt 0.933919 0.702226
vt 0.933919 0.702226
vt 0.986054 0.702123
vt 0.118021 0.809126
vt 0.118021 0.869544
vt 0.118021 0.869544
vt 0.118021 0.809126
vt 0.864383 0.327901
vt 0.861976 0.600529
vt 0.861976 0.600529
vt 0.864383 0.327901
vt 0.709239 0.549950
vt 0.986055 0.887793
vt 0.933919 0.887617
vt 0.933919 0.887617
vt 0.986055 0.887793
vt 0.019510 0.922357
vt 0.019510 0.802631
vt 0.019510 0.802631
vt 0.019510 0.922357
vt 0.841339 0.313823
vt 0.838965 0.041201
vt 0.838965 0.041201
vt 0.841339 0.313823
vt 0.081240 0.524924
vt 0.019996 0.524924
vt 0.019996 0.524924
vt 0.081240 0.524924
vt 0.764820 0.600620
vt 0.764782 0.327503
vt 0.764782 0.327503
vt 0.764820 0.600620
vt 0.867975 0.938978
vt 0.836925 0.939094
vt 0.836925 0.939094
vt 0.867975 0.938978
vt 0.097353 0.809126
vt 0.089801 0.787052
vt 0.125572 0.787052
vt 0.097353 0.869544
vt 0.125572 0.891618
vt 0.089801 0.891618
vt 0.068541 0.779027
vt 0.068541 0.945961
vt 0.011435 0.945961
vt 0.011435 0.779027
vt 0.011435 0.320865
vt 0.089801 0.320865
vt 0.089801 0.549950
vt 0.011435 0.549950
vt 0.097353 0.869544
vt 0.827146 0.041108
vt 0.827077 0.314225
vt 0.827077 0.314225
vt 0.827146 0.041108
vt 0.903746 0.936149
vt 0.872696 0.936110
vt 0.872696 0.936110
vt 0.903746 0.936149
vt 0.984381 0.191539
vt 0.953670 0.186927
vt 0.953670 0.186927
vt 0.984381 0.191539
vt 0.729980 0.557206
vt 0.732176 0.771616
vt 0.732176 0.771616
vt 0.729980 0.557206
vt 0.867815 0.760087
vt 0.837104 0.764749
vt 0.837104 0.764749
vt 0.867815 0.760087
vt 0.097353 0.809126
vt 0.877440 0.771767
vt 0.879610 0.557356
vt 0.879610 0.557356
vt 0.877440 0.771767
vt 0.924352 0.327879
vt 0.924325 0.542804
vt 0.924325 0.542804
vt 0.924352 0.327879
vt 0.899312 0.256375
vt 0.899254 0.041450
vt 0.899254 0.041450
vt 0.899312 0.256375
vt 0.810941 0.765671
vt 0.759060 0.759673
vt 0.759060 0.759673
vt 0.810941 0.765671
vt 0.166397 0.034306
vt 0.166397 0.320865
vt 0.160410 0.314225
vt 0.160479 0.041108
vt 0.089801 0.607424
vt 0.089801 0.320865
vt 0.098116 0.327503
vt 0.098154 0.600620
vt 0.166397 0.320854
vt 0.172299 0.041201
vt 0.174672 0.313823
vt 0.203655 0.320865
vt 0.203655 0.607414
vt 0.195309 0.600529
vt 0.197716 0.327901
vt 0.223320 0.263391
vt 0.223320 0.034306
vt 0.232587 0.041450
vt 0.232645 0.256375
vt 0.264792 0.320865
vt 0.264792 0.549950
vt 0.257659 0.542804
vt 0.257685 0.327879
vt 0.203655 0.779025
vt 0.203655 0.549950
vt 0.212944 0.557356
vt 0.210774 0.771767
vt 0.072573 0.549950
vt 0.072573 0.779027
vt 0.065510 0.771616
vt 0.063313 0.557206
vt 0.321898 0.909162
vt 0.264792 0.909162
vt 0.267253 0.887617
vt 0.319388 0.887793
vt 0.321898 0.729565
vt 0.264792 0.729565
vt 0.267252 0.702226
vt 0.319388 0.702123
vt 0.264792 0.320865
vt 0.321896 0.320865
vt 0.319303 0.342151
vt 0.267424 0.348059
vt 0.146905 0.787052
vt 0.089801 0.787052
vt 0.092394 0.759673
vt 0.144274 0.765671
vt 0.203655 0.786579
vt 0.167886 0.786579
vt 0.170437 0.764749
vt 0.201148 0.760087
vt 0.320224 0.213471
vt 0.284455 0.213471
vt 0.287003 0.186927
vt 0.317714 0.191539
vt 0.239425 0.958167
vt 0.203655 0.958167
vt 0.206029 0.936110
vt 0.237079 0.936149
vt 0.203655 0.965694
vt 0.167885 0.965694
vt 0.170259 0.939094
vt 0.201308 0.938978
vt 0.860294 0.680612
vt 0.844759 0.699259
vt 0.852254 0.607414
vt 0.852635 0.607414
vt 0.976854 0.125743
vt 0.961315 0.107294
vt 0.968808 0.034306
vt 0.969188 0.034306
vt 0.896706 0.870096
vt 0.879820 0.869940
vt 0.888015 0.779025
vt 0.888396 0.779025
vt 0.860934 0.858832
vt 0.844047 0.859295
vt 0.852245 0.786579
vt 0.852625 0.786579
vt 0.809394 0.061511
vt 0.809119 0.294305
vt 0.776129 0.267101
vt 0.776129 0.088068
vt 0.927289 0.235326
vt 0.927055 0.062882
vt 0.951121 0.088984
vt 0.951121 0.208710
vt 0.978525 0.823686
vt 0.941300 0.822984
vt 0.949677 0.729565
vt 0.970345 0.729565
vt 0.789877 0.580211
vt 0.789725 0.347418
vt 0.813398 0.374630
vt 0.813398 0.553663
vt 0.903030 0.348923
vt 0.902925 0.521366
vt 0.870322 0.495271
vt 0.870322 0.375545
vt 0.978523 0.619796
vt 0.941298 0.620209
vt 0.949677 0.549950
vt 0.970345 0.549950
vt 0.866164 0.292731
vt 0.856672 0.061885
vt 0.889987 0.088099
vt 0.889987 0.267124
vt 0.898796 0.749994
vt 0.907476 0.579574
vt 0.931459 0.604632
vt 0.931459 0.724353
vt 0.941988 0.429642
vt 0.978193 0.406007
vt 0.970348 0.500493
vt 0.949681 0.500493
vt 0.846568 0.349010
vt 0.836939 0.579874
vt 0.813398 0.374656
vt 0.702200 0.578976
vt 0.710988 0.749384
vt 0.678102 0.724354
vt 0.678102 0.604632
vt 0.803047 0.701529
vt 0.766837 0.677538
vt 0.774689 0.607424
vt 0.795357 0.607424
vn -0.9977 -0.0668 0.0118
vn -0.0491 -0.1038 -0.9934
vn 0.9976 -0.0598 -0.0336
vn 0.0399 -0.0760 0.9963
vn 0.0119 0.0797 -0.9967
vn 0.0000 1.0000 0.0000
vn 0.0000 -1.0000 0.0000
vn -0.9976 0.0645 -0.0253
vn 0.9981 0.0595 0.0148
vn -0.0164 0.0636 0.9978
vn 0.0323 0.0761 0.9966
vn 0.9995 0.0303 -0.0001
vn -0.9997 0.0240 0.0050
vn -0.0299 0.0384 -0.9988
vn -0.5540 0.8325 -0.0014
vn -0.0016 0.8994 0.4371
vn -0.5445 -0.8381 -0.0320
vn -0.5651 0.8250 0.0010
vn -0.5147 0.8570 -0.0256
vn 0.0004 -0.8456 -0.5338
vn 0.5184 0.8552 0.0023
vn 0.5761 -0.8171 -0.0212
vn 0.0030 0.8150 -0.5795
vn 0.0012 -0.8344 0.5512
vn 0.5564 0.8309 -0.0014
vn -0.5764 -0.8169 -0.0205
vn 0.5176 0.8554 -0.0189
vn 0.5634 0.8262 0.0010
vn 0.0002 -0.8365 -0.5480
vn -0.0014 -0.8473 0.5311
vn 0.0000 -0.8438 -0.5366
vn 0.0000 -0.8438 0.5366
vn 0.5366 -0.8438 -0.0000
vn -0.5366 -0.8438 0.0000
vn -0.5112 -0.8595 0.0000
vn 0.5112 -0.8595 -0.0000
vn 0.0000 -0.8595 0.5112
vn 0.0000 -0.8595 -0.5112
vn -0.4507 -0.8927 0.0000
vn 0.4507 -0.8927 0.0000
vn 0.0000 -0.8927 0.4507
vn 0.0000 -0.8927 -0.4507
vn 0.0000 0.8263 0.5632
vn 0.0008 -0.7977 0.6031
vn -0.0000 -0.8538 -0.5206
vn 0.0000 0.8635 0.5044
vn -0.5293 -0.8474 0.0418
vn -0.0000 0.7923 0.6101
vn 0.5387 -0.8421 0.0253
vn 0.5293 -0.8473 0.0428
vn -0.0001 0.8852 -0.4652
vn -0.5375 -0.8429 0.0247
vn 0.0000 0.8007 -0.5990
vn -0.0001 -0.8329 -0.5534
vn -0.0000 0.8586 -0.5126
vn -0.0008 -0.8541 0.5201
vn -0.5202 0.8541 0.0024
vn 0.5447 -0.8380 -0.0330
vn 0.0001 0.3980 0.9174
vn -0.0003 0.2853 -0.9584
vn -0.9460 0.3242 0.0045
vn 0.9468 0.3218 0.0039
vn -0.0003 0.2699 0.9629
vn 0.0004 0.3524 -0.9359
vn -0.9554 0.2952 -0.0047
vn 0.9549 0.2968 -0.0042
vn 0.0002 0.3552 0.9348
vn -0.0005 0.2783 -0.9605
vn -0.9540 0.2997 0.0063
vn 0.9546 0.2980 0.0054
vn 0.9583 0.2856 -0.0067
vn -0.9586 0.2846 -0.0075
vn 0.0007 0.3357 -0.9420
vn -0.0005 0.2774 0.9608
vn 0.9516 0.2915 -0.0972
vn -0.9497 0.2929 -0.1110
vn 0.0103 0.2407 -0.9705
vn -0.0070 0.3055 0.9522
vn 0.0009 0.2668 0.9638
vn -0.0013 0.3611 0.9325
vn 0.0019 0.2409 0.9705
vn -0.0019 0.3754 -0.9269
vn 0.0025 0.2641 -0.9645
vn -0.0037 0.3245 -0.9459
vn -0.9464 0.3222 0.0243
vn -0.9474 0.3187 -0.0305
vn -0.9550 0.2931 0.0455
vn 0.9457 0.3244 0.0214
vn 0.9482 0.3166 -0.0269
vn 0.9547 0.2949 0.0391
vn 0.9467 0.3214 0.0215
vn -0.9458 0.3237 0.0247
vn -0.0018 0.2855 -0.9584
vn 0.0007 0.3988 0.9171
vn 0.9548 0.2964 -0.0238
vn -0.9552 0.2947 -0.0268
vn 0.0024 0.3531 -0.9356
vn -0.0014 0.2700 0.9629
vn 0.9542 0.2974 0.0326
vn -0.9535 0.2989 0.0382
vn -0.0029 0.2783 -0.9605
vn 0.0011 0.3562 0.9344
vn -0.0035 0.2781 0.9606
vn 0.0051 0.3366 -0.9416
vn -0.9576 0.2833 -0.0529
vn 0.9575 0.2846 -0.0471
usemtl Colors
s off
f 1/1/1 2/2/1 4/3/1 3/4/1
f 3/5/2 4/6/2 8/7/2 7/8/2
f 7/9/3 8/10/3 6/11/3 5/12/3
f 5/13/4 6/14/4 2/15/4 1/16/4
f 14/17/5 13/18/5 11/19/5 9/20/5
f 8/21/6 4/22/6 2/23/6 6/24/6
f 9/25/7 11/26/7 12/27/7 10/28/7
f 15/29/8 14/30/8 9/31/8 10/32/8
f 13/33/9 16/34/9 12/35/9 11/36/9
f 16/37/10 15/38/10 10/39/10 12/40/10
f 5/13/11 1/16/11 15/38/11 16/37/11
f 7/9/12 5/12/12 16/34/12 13/33/12
f 1/1/13 3/4/13 14/30/13 15/29/13
f 3/5/14 7/8/14 13/18/14 14/17/14
f 17/41/7 19/42/7 20/43/7 18/44/7
f 22/45/6 23/46/6 24/47/6 21/48/6
f 26/49/15 29/50/15 84/51/15 74/52/15
f 21/48/16 24/47/16 68/53/16 65/54/16
f 58/55/17 60/56/17 98/57/17 110/58/17
f 25/59/18 30/60/18 83/61/18 72/62/18
f 24/47/19 23/46/19 67/63/19 68/53/19
f 59/64/20 58/65/20 110/66/20 97/67/20
f 33/68/21 34/69/21 88/70/21 82/71/21
f 49/72/22 51/73/22 91/74/22 105/75/22
f 23/46/23 22/45/23 66/76/23 67/63/23
f 60/77/24 57/78/24 109/79/24 98/80/24
f 32/81/25 35/82/25 87/83/25 80/84/25
f 50/85/26 52/86/26 92/87/26 106/88/26
f 22/45/27 21/48/27 65/54/27 66/76/27
f 31/89/28 36/90/28 86/91/28 78/92/28
f 51/93/29 50/94/29 106/95/29 91/96/29
f 64/97/30 61/98/30 111/99/30 102/100/30
f 33/68/31 28/101/31 39/102/31 38/103/31
f 27/104/32 34/69/32 40/105/32 37/106/32
f 34/69/33 33/68/33 38/103/33 40/105/33
f 28/101/34 27/104/34 37/106/34 39/102/34
f 29/50/35 26/49/35 41/107/35 42/108/35
f 35/82/36 32/81/36 43/109/36 44/110/36
f 26/49/37 35/82/37 44/110/37 41/107/37
f 32/81/38 29/50/38 42/108/38 43/109/38
f 30/60/39 25/59/39 45/111/39 46/112/39
f 36/90/40 31/89/40 47/113/40 48/114/40
f 25/59/41 36/90/41 48/114/41 45/111/41
f 31/89/42 30/60/42 46/112/42 47/113/42
f 34/69/43 27/104/43 76/115/43 88/70/43
f 52/116/44 49/117/44 105/118/44 92/119/44
f 63/120/45 62/121/45 112/122/45 101/123/45
f 35/82/46 26/49/46 74/52/46 87/83/46
f 62/124/47 64/125/47 102/126/47 112/127/47
f 36/90/48 25/59/48 72/62/48 86/91/48
f 53/128/49 55/129/49 93/130/49 107/131/49
f 61/132/50 63/133/50 101/134/50 111/135/50
f 28/101/51 33/68/51 82/71/51 85/136/51
f 54/137/52 56/138/52 94/139/52 108/140/52
f 29/50/53 32/81/53 80/84/53 84/51/53
f 55/141/54 54/142/54 108/143/54 93/144/54
f 30/60/55 31/89/55 78/92/55 83/61/55
f 56/145/56 53/146/56 107/147/56 94/148/56
f 27/104/57 28/101/57 85/136/57 76/115/57
f 57/149/58 59/150/58 97/151/58 109/152/58
f 17/153/59 18/154/59 49/155/59 52/156/59
f 20/157/60 19/158/60 50/159/60 51/160/60
f 19/161/61 17/153/61 52/162/61 50/163/61
f 18/164/62 20/165/62 51/166/62 49/167/62
f 47/168/63 46/169/63 53/170/63 56/171/63
f 45/172/64 48/173/64 54/174/64 55/175/64
f 48/176/65 47/177/65 56/178/65 54/179/65
f 46/180/66 45/181/66 55/182/66 53/183/66
f 43/184/67 42/185/67 57/186/67 60/187/67
f 41/188/68 44/189/68 58/190/68 59/191/68
f 44/192/69 43/193/69 60/194/69 58/195/69
f 42/196/70 41/197/70 59/198/70 57/199/70
f 39/200/71 37/201/71 63/202/71 61/203/71
f 40/204/72 38/205/72 64/206/72 62/207/72
f 37/208/73 40/209/73 62/210/73 63/211/73
f 38/212/74 39/213/74 61/214/74 64/215/74
f 103/216/75 69/217/75 68/218/75 67/219/75
f 104/220/76 70/221/76 66/222/76 65/223/76
f 69/224/77 104/225/77 65/226/77 68/227/77
f 70/228/78 103/229/78 67/230/78 66/231/78
f 77/232/79 89/233/79 83/234/79 78/235/79
f 79/236/80 95/237/80 84/238/80 80/239/80
f 81/240/81 99/241/81 85/242/81 82/243/81
f 71/244/82 90/245/82 86/246/82 72/247/82
f 73/248/83 96/249/83 87/250/83 74/251/83
f 75/252/84 100/253/84 88/254/84 76/255/84
f 90/256/85 77/257/85 78/258/85 86/259/85
f 96/260/86 79/261/86 80/262/86 87/263/86
f 100/264/87 81/265/87 82/266/87 88/267/87
f 89/268/88 71/269/88 72/247/88 83/270/88
f 95/271/89 73/272/89 74/273/89 84/274/89
f 99/275/90 75/276/90 76/277/90 85/278/90
f 105/75/91 91/74/91 71/269/91 89/268/91
f 106/88/92 92/87/92 77/257/92 90/256/92
f 91/96/93 106/95/93 90/245/93 71/244/93
f 92/119/94 105/118/94 89/233/94 77/232/94
f 107/131/95 93/130/95 73/272/95 95/271/95
f 108/140/96 94/139/96 79/261/96 96/260/96
f 93/144/97 108/143/97 96/249/97 73/248/97
f 94/148/98 107/147/98 95/237/98 79/236/98
f 109/152/99 97/151/99 75/276/99 99/275/99
f 110/58/100 98/57/100 81/265/100 100/264/100
f 97/67/101 110/66/101 100/253/101 75/252/101
f 98/80/102 109/79/102 99/241/102 81/240/102
f 102/100/103 111/99/103 103/229/103 70/228/103
f 101/123/104 112/122/104 104/225/104 69/224/104
f 112/127/105 102/126/105 70/221/105 104/220/105
f 111/135/106 101/134/106 69/217/106 103/216/106
